<?xml version="1.0" encoding="UTF-8"?>
<svg id="_Слой_2" data-name="Слой 2" xmlns="http://www.w3.org/2000/svg" viewBox="0 0 359.99 364.05">
  <defs>
    <style>
      .cls-1 {
        fill: #fff;
        stroke-width: 0px;
      }
    </style>
  </defs>
  <g id="_Слой_1-2" data-name="Слой 1">
    <path class="cls-1" d="m.07,129.88C.07,91.12.05,52.36.07,13.61.08,2.44,2.34.09,13.46.05,34.55-.03,55.64,0,76.73.06c11.69.04,13.9,2.28,13.9,13.86,0,72.24-.03,157.48-.03,229.72,0,23.62,12.7,36.77,36.53,36.95,35.06.26,70.13.26,105.18-.08,23.47-.23,37.12-14.42,37.14-37.87.05-70.66.03-154.31,0-224.97,0-15.66,1.86-17.59,17.78-17.61,20.04-.03,40.07-.07,60.11-.02,10,.03,12.32,2.23,12.33,11.96.1,74.35.62,148.7.05,223.04-.51,65.97-44.61,117.76-107.73,128-6.19,1-12.6.93-18.91.94-36.38.08-72.76.08-109.14.03-62.44-.1-113.19-44.24-122.49-106.11C.03,248.42.15,238.99.1,229.54c-.18-33.22-.07-66.44-.07-99.66h.03Z"/>
    <path class="cls-1" d="m134.76,182.02c0-11.07-.15-22.14.05-33.21.16-9.06,3.57-12.33,12.59-12.36,21.09-.08,42.17-.1,63.26-.05,9.87.02,14.29,4.03,14.4,13.65.24,21.08.27,42.17.16,63.26-.05,9.69-4.17,14.02-14.03,14.16-21.08.28-42.17.32-63.25,0-9.82-.15-12.9-3.77-13.05-13.81-.15-10.54-.03-21.09-.03-31.63-.03,0-.06,0-.09,0Z"/>
  </g>
</svg>